{"title":"(WWE)WRESTLING SECRETS EXPOSED DVDRIP-ISAS","uid":7232576,"size":284148688,"categoryP":"video","categoryS":"other","magnet":"?xt=urn:btih:b9aeef38dcd475564f8197cd4ed0ea73ba07a48e&amp;dn=%28WWE%29WRESTLING+SECRETS+EXPOSED+DVDRIP-ISAS&amp;tr=udp%3A%2F%2Ftracker.openbittorrent.com%3A80&amp;tr=udp%3A%2F%2Fopen.demonii.com%3A1337&amp;tr=udp%3A%2F%2Ftracker.coppersurfer.tk%3A6969&amp;tr=udp%3A%2F%2Fexodus.desync.com%3A6969","seeders":0,"leechers":1,"uploader":"isasbay","files":-1,"time":1335882240,"description":"EVERYTHING IN IT IS NOT TRUE..\n\n\njust watch and enjoy\n &lt;a href=&quot;\nhttp://bayimg.com/IaoibAAdF&quot; rel=&quot;nofollow&quot; target=&quot;_NEW&quot;&gt;\nhttp://bayimg.com/IaoibAAdF&lt;/a&gt;\n\n\n\nVideo\nID                               : 0\nFormat                           : MPEG-4 Visual\nFormat profile                   : Advanced Simple@L5\nFormat settings, BVOP            : 2\nFormat settings, QPel            : No\nFormat settings, GMC             : No warppoints\nFormat settings, Matrix          : Default (H.263)\nMuxing mode                      : Packed bitstream\nCodec ID                         : XVID\nCodec ID/Hint                    : XviD\nDuration                         : 34mn 57s\nBit rate                         : 946 Kbps\nWidth                            : 384 pixels\nHeight                           : 288 pixels\nDisplay aspect ratio             : 4:3\nFrame rate                       : 25.000 fps\nColor space                      : YUV\nChroma subsampling               : 4:2:0\nBit depth                        : 8 bits\nScan type                        : Progressive\nCompression mode                 : Lossy\nBits/(Pixel*Frame)               : 0.342\nStream size                      : 237 MiB (87%)\nWriting library                  : XviD 1.0.3 (UTC 2004-12-20)\n\nAudio\nID                               : 1\nFormat                           : MPEG Audio\nFormat version                   : Version 1\nFormat profile                   : Layer 3\nMode                             : Joint stereo\nMode extension                   : MS Stereo\nCodec ID                         : 55\nCodec ID/Hint                    : MP3\nDuration                         : 34mn 57s\nBit rate mode                    : Constant\nBit rate                         : 128 Kbps\nChannel(s)                       : 2 channels\nSampling rate                    : 44.1 KHz\nCompression mode                 : Lossy\nStream size                      : 31.9 MiB (12%)\nAlignment                        : Split accross interleaves\nInterleave, duration             : 40 ms (1.00 video frame)\nInterleave, preload duration     : 500 ms\n &lt;a href=&quot;\nhttp://bayimg.com/IaoibAAdF&quot; rel=&quot;nofollow&quot; target=&quot;_NEW&quot;&gt;\nhttp://bayimg.com/IaoibAAdF&lt;/a&gt;\n","torrent":{"xt":"urn:btih:b9aeef38dcd475564f8197cd4ed0ea73ba07a48e","amp;dn":"%28WWE%29WRESTLING+SECRETS+EXPOSED+DVDRIP-ISAS","amp;tr":["udp%3A%2F%2Ftracker.openbittorrent.com%3A80","udp%3A%2F%2Fopen.demonii.com%3A1337","udp%3A%2F%2Ftracker.coppersurfer.tk%3A6969","udp%3A%2F%2Fexodus.desync.com%3A6969"],"infoHash":"b9aeef38dcd475564f8197cd4ed0ea73ba07a48e","infoHashBuffer":{"type":"Buffer","data":[185,174,239,56,220,212,117,86,79,129,151,205,78,208,234,115,186,7,164,142]},"announce":[],"urlList":[]}}